#!OML:ASF F:\VICON\USERDATA\INSTALL\rory3\rory3.ASF
:FULLY-SPECIFIED
:DEGREES
327
root 1.43308 17.1711 -5.06559 7.98473 -5.99256 4.99287
lowerback -6.38044 -0.617527 -3.60086
upperback -3.71373 -0.634721 -0.645886
thorax -0.222056 -0.272829 1.31665
lowerneck -16.3339 -1.91908 -6.56668
upperneck 26.7882 -2.14756 4.41186
head 11.5594 -1.09521 2.43473
rclavicle 3.06874e-015 -9.54166e-015
rhumerus -41.1252 5.5232 -89.8674
rradius 34.9334
rwrist 2.30516
rhand -26.5162 -45.6347
rfingers 7.12502
rthumb 0.0471938 -75.6144
lclavicle 3.06874e-015 -9.54166e-015
lhumerus -26.4619 -14.1477 88.4827
lradius 37.2656
lwrist 10.5382
lhand -34.1191 -27.4092
lfingers 7.12502
lthumb -7.29455 2.44508
rfemur -46.2278 6.48398 14.5028
rtibia 49.8215
rfoot -8.47881 -14.4437
rtoes -14.0361
lfemur -14.6504 -5.60571 -31.9251
ltibia 30.5191
lfoot -21.4997 7.87928
ltoes 4.23003
328
root 1.42168 17.1796 -4.95866 8.17525 -5.67903 5.07448
lowerback -6.40722 -0.761934 -3.86746
upperback -3.7415 -0.812308 -0.580897
thorax -0.223817 -0.356637 1.52167
lowerneck -16.3495 -1.79096 -6.58815
upperneck 26.7361 -1.95936 4.43069
head 11.5301 -1.00906 2.47226
rclavicle 1.13059e-015 1.47101e-014
rhumerus -41.0194 5.72152 -89.9908
rradius 34.9834
rwrist 1.37378
rhand -27.515 -46.129
rfingers 7.12502
rthumb -0.917531 -76.1067
lclavicle 1.13059e-015 1.47101e-014
lhumerus -25.9458 -14.4573 88.6492
lradius 37.5358
lwrist 10.772
lhand -34.0615 -27.6036
lfingers 7.12502
lthumb -7.23897 2.25256
rfemur -46.312 6.43344 14.2398
rtibia 47.1033
rfoot -7.89073 -14.3761
rtoes -14.327
lfemur -14.0451 -5.78388 -31.9833
ltibia 29.7751
lfoot -21.4184 7.76629
ltoes 3.71288
329
root 1.41492 17.1848 -4.84244 8.27688 -5.32998 5.07559
lowerback -6.06607 -0.919374 -3.96009
upperback -4.04271 -1.04263 -0.490752
thorax -0.709037 -0.457066 1.65924
lowerneck -16.0076 -1.60444 -6.58755
upperneck 26.827 -1.69869 4.36297
head 11.4781 -0.904404 2.48632
rclavicle 1.46231e-014 2.06736e-014
rhumerus -41.4685 5.98425 -90.1184
rradius 35.0262
rwrist 0.584295
rhand -28.3458 -45.8091
rfingers 7.12502
rthumb -1.71988 -75.7819
lclavicle 1.46231e-014 2.06736e-014
lhumerus -26.1611 -14.5883 88.9409
lradius 37.9711
lwrist 10.8439
lhand -33.5918 -27.4768
lfingers 7.12502
lthumb -6.78551 2.39444
rfemur -46.0994 6.29284 14.0941
rtibia 44.4202
rfoot -7.32958 -14.1637
rtoes -13.8567
lfemur -13.2808 -5.97343 -31.984
ltibia 29.0187
lfoot -21.3165 7.682
ltoes 3.20614
330
root 1.40985 17.204 -4.73068 8.38989 -5.18003 5.07555
lowerback -6.36994 -1.00829 -3.91902
upperback -3.7973 -1.14078 -0.517109
thorax -0.282237 -0.517802 1.59658
lowerneck -16.2853 -1.66138 -6.57085
upperneck 26.6383 -1.77274 4.40443
head 11.4666 -0.925927 2.48492
rclavicle 2.60284e-014 1.55052e-014
rhumerus -41.1339 6.06655 -90.2222
rradius 35.1355
rwrist 0.219681
rhand -28.0927 -45.4852
rfingers 7.12502
rthumb -1.47546 -75.4598
lclavicle 2.60284e-014 1.55052e-014
lhumerus -25.3859 -14.8773 88.8917
lradius 38.1785
lwrist 10.8074
lhand -33.5224 -27.0463
lfingers 7.12502
lthumb -6.71857 2.82713
rfemur -46.1834 6.24539 13.9326
rtibia 41.8134
rfoot -6.23889 -13.9306
rtoes -13.6705
lfemur -12.4834 -6.00263 -32.0008
ltibia 28.1253
lfoot -21.1718 7.65411
ltoes 2.70317
331
root 1.39868 17.2077 -4.61601 8.47294 -4.87445 5.23769
lowerback -6.52285 -1.1378 -4.14104
upperback -3.66487 -1.28905 -0.567957
thorax -0.0496324 -0.594978 1.65504
lowerneck -16.5271 -1.79335 -6.45879
upperneck 26.5264 -1.95102 4.32081
head 11.4823 -1.00199 2.40659
rclavicle 2.0276e-014 6.75868e-015
rhumerus -40.9629 6.07255 -90.3244
rradius 35.2798
rwrist -0.0281449
rhand -27.312 -46.0001
rfingers 7.12502
rthumb -0.72139 -75.9787
lclavicle 2.0276e-014 6.75868e-015
lhumerus -24.7756 -15.1389 88.8939
lradius 38.4029
lwrist 10.7428
lhand -33.345 -26.2776
lfingers 7.12502
lthumb -6.54725 3.60122
rfemur -46.0155 6.06129 13.649
rtibia 39.3013
rfoot -5.29998 -13.6449
rtoes -13.7766
lfemur -11.6655 -6.07549 -32.1419
ltibia 27.2403
lfoot -21.1237 7.52387
ltoes 2.07808
332
root 1.38761 17.216 -4.47805 8.32472 -4.27984 5.32504
lowerback -6.56359 -1.295 -4.28469
upperback -3.56751 -1.48444 -0.576033
thorax 0.087826 -0.694504 1.71197
lowerneck -16.5858 -1.87924 -6.32334
upperneck 26.5481 -2.05663 4.13574
head 11.5062 -1.05885 2.29934
rclavicle 9.48576e-015 7.55382e-015
rhumerus -40.9284 5.78569 -90.2536
rradius 35.1911
rwrist -0.0621761
rhand -26.9077 -46.3216
rfingers 7.12502
rthumb -0.330913 -76.3011
lclavicle 9.48576e-015 7.55382e-015
lhumerus -24.7264 -15.7302 89.255
lradius 38.1573
lwrist 9.20845
lhand -34.6122 -28.6957
lfingers 7.12502
lthumb -7.77045 1.14149
rfemur -45.3721 5.84962 13.4187
rtibia 36.9018
rfoot -4.44623 -13.4202
rtoes -14.2727
lfemur -10.4488 -6.29515 -32.1892
ltibia 26.3258
lfoot -21.1594 7.27531
ltoes 1.78831
333
root 1.38206 17.2142 -4.34208 8.36061 -4.67255 5.22685
lowerback -6.83649 -1.13424 -4.23213
upperback -3.53232 -1.25839 -0.550155
thorax 0.261181 -0.58574 1.7195
lowerneck -16.3788 -1.81511 -6.27506
upperneck 26.4646 -1.96622 4.05346
head 11.4257 -1.02445 2.27253
rclavicle 1.99716e-014 1.07344e-014
rhumerus -40.9465 5.40947 -90.0639
rradius 35.0742
rwrist 0.460874
rhand -26.446 -46.8276
rfingers 7.12502
rthumb 0.114961 -76.8073
lclavicle 1.99716e-014 1.07344e-014
lhumerus -24.6068 -16.1188 89.538
lradius 38.2563
lwrist 8.84349
lhand -35.2276 -30.3468
lfingers 7.12502
lthumb -8.36445 -0.532436
rfemur -45.2331 6.30266 13.3098
rtibia 34.6585
rfoot -3.66806 -12.8554
rtoes -14.6039
lfemur -9.58367 -5.97068 -32.2013
ltibia 25.5071
lfoot -21.1988 7.2471
ltoes 2.76408
